<?xml version="1.0" standalone="no"?>
<!DOCTYPE svg PUBLIC "-//W3C//DTD SVG 20010904//EN"
 "http://www.w3.org/TR/2001/REC-SVG-20010904/DTD/svg10.dtd">
<svg version="1.0" xmlns="http://www.w3.org/2000/svg"
 width="1600.000000pt" height="1238.000000pt" viewBox="0 0 1600.000000 1238.000000"
 preserveAspectRatio="xMidYMid meet">

<g transform="translate(0.000000,1238.000000) scale(0.100000,-0.100000)"
fill="#000000" stroke="none">
<path d="M6745 8439 c-143 -17 -222 -32 -250 -44 -16 -8 -48 -17 -70 -21 -22
-4 -42 -10 -45 -14 -3 -4 -47 -30 -98 -57 -148 -77 -303 -204 -380 -308 -20
-27 -39 -52 -42 -55 -28 -27 -130 -213 -130 -238 0 -10 -4 -22 -9 -28 -4 -5
-13 -27 -19 -49 -6 -22 -18 -60 -28 -85 -14 -37 -17 -82 -18 -255 l-1 -210 39
-129 c57 -192 133 -326 269 -473 40 -42 86 -89 102 -104 78 -71 339 -340 356
-369 36 -59 78 -174 67 -187 -5 -6 -32 -14 -60 -18 -96 -13 -146 -47 -199
-135 -30 -49 -34 -65 -39 -145 l-5 -90 -42 -15 c-106 -39 -195 -136 -245 -266
-33 -87 -30 -214 7 -307 15 -38 38 -81 51 -96 l23 -28 -81 -6 c-63 -5 -90 -12
-119 -31 -48 -32 -107 -105 -119 -147 -5 -18 -9 -111 -9 -207 1 -157 3 -176
20 -193 19 -19 73 -19 2159 -19 2118 0 2139 0 2150 20 6 11 11 97 12 202 2
170 0 186 -20 223 -52 96 -138 152 -235 154 -72 0 -89 9 -53 28 14 7 26 22 26
32 0 10 8 29 18 42 25 32 37 105 36 214 -2 80 -5 98 -37 166 -19 41 -50 91
-68 111 -54 55 -128 108 -155 108 -35 0 -51 34 -58 124 -10 117 -20 134 -123
222 -35 30 -52 37 -102 41 -69 6 -77 17 -57 71 54 144 55 146 142 232 102 100
119 130 99 178 -12 27 -19 32 -49 32 -25 0 -45 -9 -69 -30 -19 -16 -46 -30
-59 -30 -25 0 -78 46 -78 67 0 7 -25 41 -56 78 -54 63 -114 105 -152 105 -10
0 -27 7 -38 15 -24 18 -111 19 -146 1 -15 -8 -42 -17 -60 -21 -18 -4 -50 -20
-70 -36 -20 -16 -40 -29 -44 -29 -10 0 -29 -26 -78 -110 -71 -121 -85 -276
-36 -387 11 -25 23 -64 27 -86 7 -45 -4 -57 -53 -57 -18 0 -45 -7 -60 -15 -34
-17 -75 -20 -90 -5 -6 6 -38 15 -72 21 -80 14 -89 26 -63 77 18 36 42 130 54
218 3 18 -1 58 -7 90 -31 148 -144 281 -274 326 -20 6 -41 16 -47 20 -15 13
-82 9 -122 -7 -21 -8 -51 -17 -66 -19 -42 -7 -88 -39 -149 -104 -43 -46 -63
-79 -88 -143 -30 -78 -32 -90 -27 -174 6 -91 19 -139 57 -213 25 -47 20 -62
-19 -62 -15 0 -49 -7 -75 -16 -31 -11 -62 -14 -89 -10 -76 10 -147 25 -157 31
-17 11 -11 66 11 96 49 70 50 278 1 382 -33 71 -124 167 -181 190 -116 48
-143 57 -173 57 -19 0 -43 -7 -54 -15 -10 -8 -33 -15 -51 -15 -17 0 -38 -7
-47 -15 -8 -8 -20 -15 -26 -15 -26 0 -119 -103 -141 -155 -23 -55 -55 -81 -88
-70 -27 8 -341 326 -404 408 -128 168 -192 352 -204 589 -6 113 -1 150 42 328
10 44 70 169 111 232 25 40 52 82 59 93 31 50 185 188 246 222 19 10 46 26 60
36 52 35 206 90 299 108 103 20 316 25 385 9 22 -5 63 -14 90 -19 56 -12 58
-13 170 -65 148 -70 284 -173 405 -307 40 -44 87 -91 106 -105 52 -40 78 -28
197 89 166 164 265 243 367 295 189 95 286 120 473 121 135 2 167 -1 263 -25
252 -61 466 -209 619 -428 57 -82 86 -147 131 -291 27 -84 29 -101 29 -260 0
-188 -2 -197 -77 -446 -15 -49 -4 -85 29 -96 45 -15 59 -6 94 60 40 73 51 106
74 207 58 261 19 600 -89 780 -18 30 -38 70 -46 88 -7 17 -16 32 -20 32 -4 0
-12 12 -19 26 -27 60 -124 164 -221 239 -29 22 -58 46 -65 53 -8 6 -18 12 -23
12 -5 0 -16 7 -23 16 -7 9 -22 20 -34 25 -11 5 -27 13 -35 19 -61 40 -272 120
-318 120 -16 0 -51 6 -78 14 -105 31 -207 30 -356 -3 -27 -6 -67 -15 -90 -20
-90 -19 -163 -43 -189 -62 -15 -10 -31 -19 -36 -19 -15 0 -125 -60 -162 -89
-20 -15 -49 -35 -64 -45 -16 -9 -77 -66 -138 -127 -132 -132 -139 -134 -219
-54 -111 110 -181 175 -188 175 -5 0 -17 8 -28 18 -27 25 -146 97 -219 132
-89 42 -171 69 -249 81 -38 6 -87 17 -109 25 -42 15 -103 16 -202 3z m174
-2093 c52 -25 117 -102 130 -154 28 -113 30 -126 20 -145 -6 -10 -17 -40 -25
-66 -28 -97 -135 -181 -229 -181 -88 0 -171 54 -211 136 -33 70 -42 180 -20
255 17 58 72 133 110 150 12 6 32 16 46 24 33 19 120 10 179 -19z m1992 8 c8
-8 22 -14 29 -14 7 0 34 -22 59 -48 61 -64 76 -119 66 -245 -8 -98 -19 -125
-78 -181 -17 -15 -57 -40 -89 -54 l-59 -25 -62 19 c-101 30 -183 129 -201 240
-9 61 8 130 50 206 31 56 45 70 88 92 75 37 162 42 197 10z m-986 -3 c87 -53
136 -137 143 -244 6 -92 -12 -148 -66 -216 -44 -54 -140 -101 -192 -94 -59 8
-141 55 -172 98 -55 75 -60 95 -56 213 l3 109 48 56 c63 74 104 94 192 96 52
1 78 -4 100 -18z m-1105 -715 c36 0 131 3 211 8 181 10 180 10 176 -103 -4
-95 -19 -122 -76 -140 -60 -17 -162 -121 -200 -201 -64 -134 -64 -293 0 -405
17 -30 29 -61 26 -69 -4 -9 -31 -16 -79 -21 -40 -4 -82 -11 -93 -15 -11 -4
-36 -2 -57 6 -20 7 -57 12 -82 11 -69 -3 -76 11 -39 85 52 107 63 211 35 333
-9 39 -57 127 -97 176 -35 42 -127 109 -150 109 -28 0 -55 39 -55 77 1 15 7
50 14 77 10 39 20 53 47 68 31 17 48 18 194 12 88 -4 189 -7 225 -8z m1368 0
c7 -4 21 -24 31 -44 10 -20 28 -45 40 -56 23 -21 36 -73 26 -104 -3 -13 -19
-23 -38 -28 -84 -18 -213 -153 -245 -256 -31 -97 -19 -271 24 -343 15 -27 24
-55 22 -72 -3 -27 -6 -28 -68 -34 -36 -3 -80 -14 -99 -23 -40 -21 -102 -17
-130 8 -10 9 -33 16 -52 16 -19 0 -51 5 -71 11 -44 12 -49 35 -19 77 70 99 68
308 -4 431 -51 87 -142 175 -193 187 -35 8 -72 42 -72 65 0 10 14 33 31 50 17
18 37 47 45 65 26 61 19 60 406 59 195 -1 359 -5 366 -9z m692 5 c144 6 332 4
361 -4 15 -4 34 -18 43 -32 20 -30 32 -111 22 -149 -6 -26 -51 -56 -83 -56
-10 0 -51 -31 -91 -69 -84 -81 -122 -154 -142 -272 -15 -90 -4 -158 41 -253
31 -66 36 -95 17 -97 -19 -3 -108 -9 -143 -10 -47 -3 -215 13 -220 20 -2 4 14
46 36 94 37 82 39 92 39 187 0 97 -1 103 -41 188 -33 69 -55 100 -107 149 -42
40 -77 65 -98 69 -17 3 -45 18 -62 34 -28 25 -30 30 -21 66 4 22 9 60 9 85 0
25 3 49 8 54 4 4 81 4 172 0 91 -5 208 -6 260 -4z m652 -424 c63 -61 82 -107
86 -205 7 -148 -47 -241 -167 -287 -83 -31 -89 -31 -154 2 -116 59 -167 143
-167 276 0 79 16 122 69 194 41 56 82 76 166 83 83 6 106 -2 167 -63z m-3146
34 c91 -66 119 -128 118 -256 0 -141 -42 -212 -149 -260 -77 -34 -107 -37
-149 -14 -20 10 -42 19 -48 19 -14 1 -39 21 -81 67 -54 58 -75 247 -36 323 56
111 115 149 230 150 68 0 80 -3 115 -29z m987 10 c132 -62 183 -267 106 -421
-46 -93 -186 -159 -257 -121 -9 6 -29 12 -43 15 -54 11 -96 62 -154 186 -45
96 42 297 150 346 44 19 152 17 198 -5z m1112 -6 c70 -47 106 -107 133 -226
10 -40 8 -56 -10 -110 -34 -101 -71 -148 -155 -195 -56 -31 -96 -30 -155 1
-26 14 -53 25 -60 25 -19 0 -83 98 -102 154 -32 93 -17 189 42 275 51 74 104
101 199 101 60 0 78 -4 108 -25z m-825 -713 c66 -32 79 -60 79 -174 1 -117 31
-110 -446 -112 -219 0 -416 1 -438 4 -55 7 -68 36 -59 134 8 86 29 118 102
155 40 21 51 21 260 15 119 -3 227 -2 239 3 12 4 64 7 115 5 77 -3 103 -8 148
-30z m-1038 17 c35 -14 39 -34 31 -167 -6 -110 -7 -114 -32 -123 -37 -14 -725
-19 -781 -5 -44 11 -45 12 -53 61 -7 46 -2 137 9 177 8 28 56 52 114 58 108
10 684 9 712 -1z m1758 -1 c8 1 83 3 166 7 147 5 153 5 200 -19 27 -14 60 -40
74 -58 22 -29 25 -43 25 -120 0 -48 -5 -92 -11 -98 -15 -15 -883 -22 -910 -6
-22 13 -22 13 -28 102 -6 81 8 121 56 157 57 44 73 47 248 41 91 -3 172 -6
180 -6z m1415 -13 c54 -27 66 -66 58 -180 -6 -81 -8 -87 -32 -97 -33 -14 -732
-17 -783 -4 -34 9 -38 13 -42 50 -2 23 -4 64 -4 91 0 28 -3 62 -5 77 -4 18 2
35 19 55 l24 29 362 0 c342 -1 365 -2 403 -21z"/>
<path d="M6700 7974 c-8 -3 -24 -9 -35 -14 -11 -5 -42 -11 -68 -14 -27 -3 -55
-13 -63 -21 -9 -8 -24 -15 -34 -15 -25 0 -70 -56 -70 -86 0 -37 46 -75 79 -67
14 3 28 9 31 13 3 4 39 17 81 29 93 26 299 29 364 6 22 -8 47 -15 55 -15 42
-1 199 -96 251 -152 21 -23 60 -23 88 1 28 24 29 46 8 91 -33 67 -243 195
-375 227 -65 16 -282 27 -312 17z"/>
<path d="M6183 7658 c-5 -7 -15 -28 -23 -45 -11 -28 -10 -36 4 -58 19 -29 44
-32 86 -10 37 19 46 47 24 80 -28 42 -72 58 -91 33z"/>
<path d="M6048 7315 c-32 -18 -44 -63 -34 -132 8 -59 20 -73 66 -73 47 0 74
35 74 95 0 64 -12 93 -44 110 -34 18 -28 18 -62 0z"/>
<path d="M9592 6572 c-7 -2 -19 -17 -27 -32 -44 -86 31 -147 95 -78 25 27 25
35 1 74 -19 31 -45 45 -69 36z"/>
<path d="M5388 3183 c-2 -60 -2 -154 -2 -210 1 -83 -1 -103 -14 -108 -17 -6
-51 2 -72 20 -35 28 -128 39 -227 27 -107 -14 -128 -25 -208 -108 -52 -54 -67
-80 -104 -174 -25 -66 -29 -189 -7 -232 8 -15 17 -42 21 -60 12 -54 108 -178
138 -178 9 0 17 -4 17 -9 0 -4 26 -20 59 -35 95 -42 249 -33 318 20 17 13 45
24 61 24 24 0 32 -6 41 -30 10 -30 11 -30 85 -30 41 0 78 5 81 10 8 13 6 1144
-1 1165 -5 12 -26 15 -95 15 l-89 0 -2 -107z m-88 -479 c54 -36 66 -59 80
-147 10 -65 9 -85 -5 -134 -20 -70 -38 -94 -98 -127 -85 -48 -215 -29 -284 39
-8 8 -18 15 -22 15 -28 0 -42 183 -20 251 7 19 32 55 57 82 l46 47 103 0 c95
0 107 -2 143 -26z"/>
<path d="M5858 3243 c-35 -22 -53 -56 -53 -104 0 -104 140 -133 193 -40 21 39
22 42 6 81 -29 73 -88 99 -146 63z"/>
<path d="M4140 2922 c0 -6 -26 -14 -57 -18 -32 -3 -72 -14 -90 -23 -40 -21
-173 -147 -173 -165 0 -7 -8 -24 -18 -37 -58 -75 -51 -268 14 -370 13 -21 24
-43 24 -47 0 -19 98 -95 165 -129 l70 -36 145 -1 c142 0 146 0 200 29 58 32
74 61 49 92 -7 8 -18 25 -24 37 -10 18 -18 21 -60 18 -48 -3 -146 -25 -164
-36 -5 -3 -11 0 -14 8 -3 8 -28 17 -59 21 -51 7 -127 48 -155 84 -18 23 -16
49 5 59 9 5 126 8 259 6 133 -1 255 1 269 5 27 7 34 23 36 81 1 47 -15 155
-23 158 -5 2 -9 9 -9 16 0 7 -9 23 -20 36 -11 13 -20 26 -20 30 0 16 -119 129
-155 147 -22 11 -65 23 -95 27 -30 3 -65 9 -77 12 -13 4 -23 2 -23 -4z m153
-225 c47 -36 91 -121 72 -137 -14 -12 -356 -12 -375 0 -23 15 -2 75 44 123 39
42 47 46 97 49 86 5 121 -3 162 -35z"/>
<path d="M6530 2906 c-123 -23 -214 -93 -271 -212 -29 -60 -34 -81 -37 -165
-3 -71 0 -112 13 -155 18 -62 71 -164 85 -164 5 0 24 -15 43 -33 19 -18 57
-44 83 -57 44 -22 61 -25 160 -24 119 0 136 6 195 61 37 34 69 28 84 -17 l12
-35 79 0 79 0 3 383 c2 284 0 387 -9 398 -8 10 -33 14 -81 14 -66 0 -70 -1
-86 -30 -23 -40 -40 -41 -83 -9 -20 16 -63 34 -103 43 -77 18 -78 18 -166 2z
m203 -180 c50 -18 68 -36 101 -96 23 -41 27 -62 27 -127 0 -89 -16 -136 -58
-173 -54 -48 -87 -60 -165 -59 -125 1 -194 55 -232 179 -11 37 -11 50 0 77 8
18 14 43 14 56 0 29 55 101 97 127 51 30 153 38 216 16z"/>
<path d="M2416 2891 c-7 -10 -9 -781 -3 -787 7 -7 178 -6 185 1 3 2 7 116 9
252 5 271 9 291 65 338 30 26 47 30 108 25 41 -2 53 -11 92 -64 l28 -39 0
-259 0 -258 100 0 100 0 0 243 c0 138 5 258 11 280 22 80 129 121 208 79 62
-33 70 -71 70 -354 l1 -248 100 0 99 0 -1 280 -1 281 -33 67 c-17 37 -41 75
-53 84 -12 10 -21 23 -21 30 -1 7 -22 23 -49 36 -65 30 -193 31 -231 2 -14
-11 -29 -20 -33 -20 -4 0 -26 -18 -48 -40 -22 -22 -44 -40 -49 -40 -9 0 -69
47 -85 67 -5 7 -28 22 -50 33 -50 25 -185 29 -205 5 -7 -8 -20 -15 -30 -15 -9
0 -30 -10 -45 -22 -27 -21 -28 -21 -41 -3 -8 10 -14 24 -14 31 0 6 -7 15 -16
18 -24 9 -162 7 -168 -3z"/>
<path d="M5808 2571 c-2 -181 -1 -360 2 -398 l5 -68 92 -3 92 -3 1 401 0 400
-94 0 -94 0 -4 -329z"/>
</g>
</svg>
